<svg viewBox="0 0 128 127" fill="none" xmlns="http://www.w3.org/2000/svg">
<g id="Group">
<path id="Vector" d="M22.1236 46.2317C21.4332 45.9251 20.6253 46.2355 20.3182 46.9259C17.799 52.5926 16.5215 58.6283 16.5215 64.8672C16.5215 83.8144 28.5802 100.668 46.5279 106.805C46.6746 106.856 46.8237 106.88 46.9704 106.88C48.4658 106.88 48.8012 104.692 47.4129 104.218C30.5723 98.4587 19.2571 82.6445 19.2571 64.8675C19.2571 59.0141 20.455 53.3517 22.818 48.0365C23.1247 47.3465 22.8142 46.5386 22.1238 46.2315L22.1236 46.2317Z" fill="#060612"/>
<path id="Vector_2" d="M125.376 27.6707C121.819 24.0595 115.834 24.0595 112.277 27.6702L108.754 31.2473C97.7747 15.6185 79.9891 6.33744 60.8392 6.33744C50.6846 6.33744 40.6973 8.97744 31.9197 13.9728C28.6693 13.4687 25.7814 11.7304 25.1477 8.23621L24.6668 5.58533C24.0756 2.32613 21.4019 0.867462 19.0148 0.867462C16.6272 0.867462 13.9544 2.32624 13.3627 5.58576L12.8819 8.23621C12.376 11.0242 10.1623 13.2379 7.37393 13.7433L4.72305 14.2241C1.46311 14.8158 0.00390625 17.4887 0.00390625 19.8762C0.00390625 22.2629 1.46311 24.9358 4.72305 25.5271L7.37393 26.0083C10.1085 26.5041 12.2856 28.6437 12.8465 31.355C5.94769 41.2112 2.30193 52.7843 2.30193 64.8675C2.30193 76.9059 5.91313 88.4238 12.7574 98.2531C12.2903 98.8919 11.9382 99.6735 11.7678 100.613C11.5591 101.764 10.6454 102.677 9.49412 102.886C6.33998 103.458 4.92782 106.045 4.92782 108.355C4.92782 110.664 6.33988 113.251 9.49412 113.823C10.6454 114.032 11.5595 114.946 11.7678 116.097C12.3399 119.251 14.9265 120.663 17.2369 120.663C19.5469 120.663 22.134 119.251 22.7061 116.097C22.9148 114.946 23.8285 114.033 24.9798 113.824C25.9077 113.655 26.6814 113.309 27.316 112.85C37.176 119.754 48.7411 123.398 60.8392 123.398C69.9142 123.398 78.6035 121.374 86.6813 117.391C88.5222 117.94 90.2151 118.528 90.6105 120.707C91.2905 124.455 94.3651 126.133 97.1106 126.133C99.8564 126.133 102.931 124.455 103.611 120.707C103.897 119.128 105.15 117.875 106.728 117.589C110.477 116.909 112.155 113.835 112.155 111.09C112.155 108.345 110.477 105.271 106.728 104.591C105.967 104.453 105.284 104.089 104.746 103.574C113.393 93.7685 118.545 81.2621 119.282 68.2221C119.325 67.4679 118.748 66.8221 117.994 66.7796C117.25 66.7355 116.594 67.3134 116.551 68.0679C115.871 80.101 111.246 91.6583 103.472 100.864C102.584 97.5437 99.7019 96.047 97.1107 96.047C94.3653 96.047 91.2907 97.7249 90.6106 101.473C90.3244 103.052 89.0714 104.305 87.4931 104.59C83.7443 105.27 82.0664 108.345 82.0664 111.09C82.0664 112.695 82.6456 114.41 83.8718 115.695C76.6301 118.989 68.8948 120.662 60.8404 120.662C49.3716 120.662 38.4041 117.227 29.0398 110.716C29.3794 109.956 29.5473 109.14 29.5473 108.355C29.5473 106.045 28.1353 103.459 24.981 102.887C23.8298 102.678 22.9156 101.764 22.7073 100.613C22.1344 97.4588 19.5477 96.047 17.2378 96.047C16.4611 96.047 15.654 96.2108 14.902 96.5424C8.44535 87.2058 5.03863 76.2822 5.03863 64.8678C5.03863 54.2394 7.99777 44.0251 13.6211 35.1302C14.5186 37.7123 16.8791 38.8852 19.0157 38.8852C21.4028 38.8852 24.0769 37.4264 24.6682 34.1669L25.149 31.5164C25.6548 28.7285 27.8681 26.5151 30.6569 26.0093L33.3081 25.5285C36.5673 24.9364 38.0264 22.2635 38.0264 19.8769C38.0264 18.1394 37.2489 16.2548 35.5714 15.1269C43.3635 11.1652 52.0333 9.07313 60.8397 9.07313C79.2621 9.07313 96.3565 18.086 106.799 33.2331L61.5533 79.1638L51.322 66.3403C48.1749 62.3958 42.2216 61.7628 38.314 64.9749C34.4615 68.1424 33.8582 73.8907 36.9686 77.7888L51.47 95.9637C56 101.642 64.7596 102.105 69.8614 96.9249L125.375 40.5708C128.879 37.0145 128.879 31.2276 125.376 27.6707ZM87.9796 107.281C90.6733 106.793 92.8117 104.655 93.3004 101.961C93.7258 99.6142 95.618 98.7817 97.1092 98.7817C98.6 98.7817 100.492 99.6142 100.918 101.961C101.407 104.655 103.545 106.793 106.239 107.281C108.586 107.707 109.418 109.599 109.418 111.089C109.418 112.58 108.585 114.472 106.239 114.897C103.545 115.386 101.407 117.524 100.918 120.217C100.492 122.564 98.6004 123.397 97.1092 123.397C95.6183 123.397 93.7262 122.564 93.3004 120.217C92.8117 117.524 90.6733 115.386 87.9796 114.897C85.6325 114.472 84.7999 112.58 84.7999 111.089C84.7999 109.599 85.6324 107.707 87.9796 107.281ZM14.4585 101.101C14.7689 99.3888 16.1489 98.7818 17.236 98.7818C18.323 98.7818 19.7031 99.3889 20.0139 101.101C20.4251 103.367 22.2243 105.166 24.491 105.577C26.2027 105.888 26.8102 107.267 26.8102 108.354C26.8102 109.441 26.2027 110.821 24.491 111.132C22.2243 111.543 20.4252 113.342 20.0139 115.608C19.7031 117.32 18.323 117.927 17.236 117.927C16.1489 117.927 14.7689 117.32 14.4581 115.608C14.0468 113.342 12.2476 111.543 9.98093 111.132C8.26925 110.821 7.66179 109.442 7.66179 108.355C7.66179 107.268 8.26928 105.888 9.98093 105.577C12.2476 105.166 14.0472 103.367 14.4585 101.101ZM32.818 22.836L30.1667 23.3168C26.2625 24.0247 23.1639 27.1235 22.4555 31.0272L21.9747 33.6777C21.6438 35.5019 20.173 36.1493 19.0138 36.1493C17.8551 36.1493 16.3843 35.5019 16.0534 33.6781L15.5725 31.0272C14.8642 27.1239 11.7651 24.0251 7.86129 23.3172L5.21041 22.8364C3.38545 22.5056 2.73831 21.0351 2.73831 19.8764C2.73831 18.7177 3.38539 17.2473 5.21041 16.916L7.86129 16.4352C11.7655 15.7264 14.8646 12.6281 15.573 8.72433L16.0538 6.07387C16.3846 4.24966 17.8555 3.60219 19.0142 3.60219C20.1734 3.60219 21.6438 4.24969 21.9751 6.07387L22.4559 8.72433C23.4401 14.1497 28.0001 16.0414 32.8181 16.9156C34.6426 17.2464 35.2897 18.7169 35.2897 19.8756C35.2897 21.0343 34.6421 22.5051 32.818 22.836Z" fill="#060612"/>
<path id="Vector_3" d="M119.829 59.7325C119.829 60.79 118.972 61.6471 117.915 61.6471C116.857 61.6471 116 60.79 116 59.7325C116 58.6754 116.857 57.818 117.915 57.818C118.972 57.818 119.829 58.6755 119.829 59.7325Z" fill="#060612"/>
</g>
</svg>
