<svg id="Layer_1" data-name="Layer 1" xmlns="http://www.w3.org/2000/svg" viewBox="0 0 211.7322 70"><rect width="211.7322" height="70" rx="10.7378" fill="#010203"/><path d="M73.0753,11.2H27.5913a1.0329,1.0329,0,0,0-1.0577,1.0578V57.742A1.0328,1.0328,0,0,0,27.5913,58.8h45.484a1.0328,1.0328,0,0,0,1.0578-1.0577h0V12.258A1.0329,1.0329,0,0,0,73.0753,11.2ZM58.2666,41.8755a1.0329,1.0329,0,0,1-1.0578,1.0577H43.4578A1.0328,1.0328,0,0,1,42.4,41.8755h0V28.1245a1.0329,1.0329,0,0,1,1.0577-1.0578h13.751a1.0329,1.0329,0,0,1,1.0578,1.0578Z" fill="#fff"/><path d="M168.2743,27.0667H154.5234a1.0329,1.0329,0,0,0-1.0578,1.0578v13.751a1.0328,1.0328,0,0,0,1.0578,1.0577h13.7509a1.0328,1.0328,0,0,0,1.0578-1.0577V28.1245A1.0329,1.0329,0,0,0,168.2743,27.0667Z" fill="#fff"/><path d="M152.4078,11.2H138.6569a1.0329,1.0329,0,0,0-1.0578,1.0578h0V26.009a1.0328,1.0328,0,0,0,1.0578,1.0577h13.7509a1.0328,1.0328,0,0,0,1.0578-1.0577h0V12.258A1.0329,1.0329,0,0,0,152.4078,11.2Z" fill="#fff"/><path d="M184.1408,11.2H170.39a1.0329,1.0329,0,0,0-1.0578,1.0578h0V26.009a1.0328,1.0328,0,0,0,1.0578,1.0577h13.7509a1.0328,1.0328,0,0,0,1.0578-1.0577V12.258A1.0329,1.0329,0,0,0,184.1408,11.2Z" fill="#fff"/><path d="M152.4078,42.9332H138.6569a1.0329,1.0329,0,0,0-1.0578,1.0578h0V57.742A1.0329,1.0329,0,0,0,138.6569,58.8h13.7509a1.0329,1.0329,0,0,0,1.0578-1.0578h0V43.991a1.0329,1.0329,0,0,0-1.0578-1.0578Z" fill="#fff"/><path d="M184.1408,42.9332H170.39a1.0329,1.0329,0,0,0-1.0578,1.0578h0V57.742A1.0329,1.0329,0,0,0,170.39,58.8h13.7509a1.0329,1.0329,0,0,0,1.0578-1.0578V43.991a1.0329,1.0329,0,0,0-1.0578-1.0578Z" fill="#fff"/><path d="M128.6081,11.2h-13.751a1.033,1.033,0,0,0-1.0578,1.0578h0V26.009a1.0329,1.0329,0,0,0,1.0578,1.0577h13.751a1.0328,1.0328,0,0,0,1.0577-1.0577V12.258A1.0329,1.0329,0,0,0,128.6081,11.2Z" fill="#fff"/><path d="M128.6081,42.9332h-13.751a1.033,1.033,0,0,0-1.0578,1.0578h0V57.742A1.033,1.033,0,0,0,114.8571,58.8h13.751a1.0329,1.0329,0,0,0,1.0577-1.0578V43.991A1.0329,1.0329,0,0,0,128.6081,42.9332Z" fill="#fff"/><path d="M113.7993,28.1245a1.0329,1.0329,0,0,0-1.0577-1.0578H97.9328V12.258A1.0329,1.0329,0,0,0,96.8751,11.2H83.1241a1.033,1.033,0,0,0-1.0578,1.0578V57.742A1.0329,1.0329,0,0,0,83.1241,58.8h13.751a1.0328,1.0328,0,0,0,1.0577-1.0577V42.9332h14.8088a1.0328,1.0328,0,0,0,1.0577-1.0577Z" fill="#fff"/><path d="M73.0753,11.2H27.5913a1.0329,1.0329,0,0,0-1.0577,1.0578V57.742A1.0328,1.0328,0,0,0,27.5913,58.8h45.484a1.0328,1.0328,0,0,0,1.0578-1.0577h0V12.258A1.0329,1.0329,0,0,0,73.0753,11.2ZM58.2666,41.8755a1.0329,1.0329,0,0,1-1.0578,1.0577H43.4578A1.0328,1.0328,0,0,1,42.4,41.8755h0V28.1245a1.0329,1.0329,0,0,1,1.0577-1.0578h13.751a1.0329,1.0329,0,0,1,1.0578,1.0578Z" fill="#fff"/><path d="M168.2743,27.0667H154.5234a1.0329,1.0329,0,0,0-1.0578,1.0578v13.751a1.0328,1.0328,0,0,0,1.0578,1.0577h13.7509a1.0328,1.0328,0,0,0,1.0578-1.0577V28.1245A1.0329,1.0329,0,0,0,168.2743,27.0667Z" fill="#fff"/><path d="M152.4078,11.2H138.6569a1.0329,1.0329,0,0,0-1.0578,1.0578h0V26.009a1.0328,1.0328,0,0,0,1.0578,1.0577h13.7509a1.0328,1.0328,0,0,0,1.0578-1.0577h0V12.258A1.0329,1.0329,0,0,0,152.4078,11.2Z" fill="#fff"/><path d="M184.1408,11.2H170.39a1.0329,1.0329,0,0,0-1.0578,1.0578h0V26.009a1.0328,1.0328,0,0,0,1.0578,1.0577h13.7509a1.0328,1.0328,0,0,0,1.0578-1.0577V12.258A1.0329,1.0329,0,0,0,184.1408,11.2Z" fill="#fff"/><path d="M152.4078,42.9332H138.6569a1.0329,1.0329,0,0,0-1.0578,1.0578h0V57.742A1.0329,1.0329,0,0,0,138.6569,58.8h13.7509a1.0329,1.0329,0,0,0,1.0578-1.0578h0V43.991a1.0329,1.0329,0,0,0-1.0578-1.0578Z" fill="#fff"/><path d="M184.1408,42.9332H170.39a1.0329,1.0329,0,0,0-1.0578,1.0578h0V57.742A1.0329,1.0329,0,0,0,170.39,58.8h13.7509a1.0329,1.0329,0,0,0,1.0578-1.0578V43.991a1.0329,1.0329,0,0,0-1.0578-1.0578Z" fill="#fff"/><path d="M128.6081,11.2h-13.751a1.033,1.033,0,0,0-1.0578,1.0578h0V26.009a1.0329,1.0329,0,0,0,1.0578,1.0577h13.751a1.0328,1.0328,0,0,0,1.0577-1.0577V12.258A1.0329,1.0329,0,0,0,128.6081,11.2Z" fill="#fff"/><path d="M128.6081,42.9332h-13.751a1.033,1.033,0,0,0-1.0578,1.0578h0V57.742A1.033,1.033,0,0,0,114.8571,58.8h13.751a1.0329,1.0329,0,0,0,1.0577-1.0578V43.991A1.0329,1.0329,0,0,0,128.6081,42.9332Z" fill="#fff"/><path d="M113.7993,28.1245a1.0329,1.0329,0,0,0-1.0577-1.0578H97.9328V12.258A1.0329,1.0329,0,0,0,96.8751,11.2H83.1241a1.033,1.033,0,0,0-1.0578,1.0578V57.742A1.0329,1.0329,0,0,0,83.1241,58.8h13.751a1.0328,1.0328,0,0,0,1.0577-1.0577V42.9332h14.8088a1.0328,1.0328,0,0,0,1.0577-1.0577Z" fill="#fff"/></svg>